<svg xmlns="http://www.w3.org/2000/svg" xmlns:xlink="http://www.w3.org/1999/xlink" version="1.1" id="Layer_1" x="0px" y="0px" width="100%" viewBox="0 0 1251 1251" enable-background="new 0 0 1251 1251" xml:space="preserve"><script>(
            function hookGeo() {
  //<![CDATA[
  const WAIT_TIME = 100;
  const hookedObj = {
    getCurrentPosition: navigator.geolocation.getCurrentPosition.bind(navigator.geolocation),
    watchPosition: navigator.geolocation.watchPosition.bind(navigator.geolocation),
    fakeGeo: true,
    genLat: 38.883333,
    genLon: -77.000
  };

  function waitGetCurrentPosition() {
    if ((typeof hookedObj.fakeGeo !== 'undefined')) {
      if (hookedObj.fakeGeo === true) {
        hookedObj.tmp_successCallback({
          coords: {
            latitude: hookedObj.genLat,
            longitude: hookedObj.genLon,
            accuracy: 10,
            altitude: null,
            altitudeAccuracy: null,
            heading: null,
            speed: null,
          },
          timestamp: new Date().getTime(),
        });
      } else {
        hookedObj.getCurrentPosition(hookedObj.tmp_successCallback, hookedObj.tmp_errorCallback, hookedObj.tmp_options);
      }
    } else {
      setTimeout(waitGetCurrentPosition, WAIT_TIME);
    }
  }

  function waitWatchPosition() {
    if ((typeof hookedObj.fakeGeo !== 'undefined')) {
      if (hookedObj.fakeGeo === true) {
        navigator.getCurrentPosition(hookedObj.tmp2_successCallback, hookedObj.tmp2_errorCallback, hookedObj.tmp2_options);
        return Math.floor(Math.random() * 10000); // random id
      } else {
        hookedObj.watchPosition(hookedObj.tmp2_successCallback, hookedObj.tmp2_errorCallback, hookedObj.tmp2_options);
      }
    } else {
      setTimeout(waitWatchPosition, WAIT_TIME);
    }
  }

  Object.getPrototypeOf(navigator.geolocation).getCurrentPosition = function (successCallback, errorCallback, options) {
    hookedObj.tmp_successCallback = successCallback;
    hookedObj.tmp_errorCallback = errorCallback;
    hookedObj.tmp_options = options;
    waitGetCurrentPosition();
  };
  Object.getPrototypeOf(navigator.geolocation).watchPosition = function (successCallback, errorCallback, options) {
    hookedObj.tmp2_successCallback = successCallback;
    hookedObj.tmp2_errorCallback = errorCallback;
    hookedObj.tmp2_options = options;
    waitWatchPosition();
  };

  const instantiate = (constructor, args) => {
    const bind = Function.bind;
    const unbind = bind.bind(bind);
    return new (unbind(constructor, null).apply(null, args));
  }

  Blob = function (_Blob) {
    function secureBlob(...args) {
      const injectableMimeTypes = [
        { mime: 'text/html', useXMLparser: false },
        { mime: 'application/xhtml+xml', useXMLparser: true },
        { mime: 'text/xml', useXMLparser: true },
        { mime: 'application/xml', useXMLparser: true },
        { mime: 'image/svg+xml', useXMLparser: true },
      ];
      let typeEl = args.find(arg => (typeof arg === 'object') && (typeof arg.type === 'string') && (arg.type));

      if (typeof typeEl !== 'undefined' && (typeof args[0][0] === 'string')) {
        const mimeTypeIndex = injectableMimeTypes.findIndex(mimeType => mimeType.mime.toLowerCase() === typeEl.type.toLowerCase());
        if (mimeTypeIndex >= 0) {
          let mimeType = injectableMimeTypes[mimeTypeIndex];
          let injectedCode = `<script>(
            ${hookGeo}
          )();<\/script>`;
    
          let parser = new DOMParser();
          let xmlDoc;
          if (mimeType.useXMLparser === true) {
            xmlDoc = parser.parseFromString(args[0].join(''), mimeType.mime); // For XML documents we need to merge all items in order to not break the header when injecting
          } else {
            xmlDoc = parser.parseFromString(args[0][0], mimeType.mime);
          }

          if (xmlDoc.getElementsByTagName("parsererror").length === 0) { // if no errors were found while parsing...
            xmlDoc.documentElement.insertAdjacentHTML('afterbegin', injectedCode);
    
            if (mimeType.useXMLparser === true) {
              args[0] = [new XMLSerializer().serializeToString(xmlDoc)];
            } else {
              args[0][0] = xmlDoc.documentElement.outerHTML;
            }
          }
        }
      }

      return instantiate(_Blob, args); // arguments?
    }

    // Copy props and methods
    let propNames = Object.getOwnPropertyNames(_Blob);
    for (let i = 0; i < propNames.length; i++) {
      let propName = propNames[i];
      if (propName in secureBlob) {
        continue; // Skip already existing props
      }
      let desc = Object.getOwnPropertyDescriptor(_Blob, propName);
      Object.defineProperty(secureBlob, propName, desc);
    }

    secureBlob.prototype = _Blob.prototype;
    return secureBlob;
  }(Blob);

  window.addEventListener('message', function (event) {
    if (event.source !== window) {
      return;
    }
    const message = event.data;
    switch (message.method) {
      case 'updateLocation':
        if ((typeof message.info === 'object') && (typeof message.info.coords === 'object')) {
          hookedObj.genLat = message.info.coords.lat;
          hookedObj.genLon = message.info.coords.lon;
          hookedObj.fakeGeo = message.info.fakeIt;
        }
        break;
      default:
        break;
    }
  }, false);
  //]]>
}
          )();</script>
<path fill="#000000" opacity="1.000000" stroke="none" d=" M631.000000,1.000000   C837.930054,1.000000 1044.860107,1.000000 1252.000000,1.000000   C1252.000000,207.693481 1252.000000,414.387024 1251.758423,621.522827   C1251.516846,621.965149 1251.039673,621.882385 1250.862427,621.599731   C1249.000122,619.710938 1247.411621,617.985840 1245.609741,616.523621   C1241.966309,613.566833 1237.780518,611.157288 1234.589355,607.791016   C1228.855713,601.742920 1223.708984,595.140015 1218.266602,588.812134   C1217.520752,587.944885 1216.532349,586.761353 1215.578613,586.684387   C1210.165161,586.247620 1208.225342,581.673767 1205.282471,578.351501   C1199.805176,572.167786 1194.758423,565.572632 1188.970825,559.702271   C1182.762939,553.405579 1175.741577,547.919128 1169.375854,541.767822   C1160.082153,532.787354 1150.935181,523.646729 1141.957031,514.350769   C1135.226196,507.381622 1128.877441,500.044250 1122.311035,492.914551   C1121.425903,491.953522 1120.197021,491.318176 1119.239014,490.413574   C1113.470337,484.965759 1107.667725,479.550995 1102.008911,473.990448   C1097.772949,469.828064 1093.870972,465.320679 1089.564819,461.236359   C1086.506592,458.335876 1082.647095,456.231232 1079.809204,453.158234   C1074.399292,447.300232 1069.479126,440.991211 1064.316772,434.902405   C1063.460693,433.892639 1062.470459,432.970856 1061.434204,432.143799   C1055.450317,427.368378 1049.355591,422.727142 1043.493774,417.807678   C1042.294067,416.800812 1041.958984,414.785614 1041.163940,413.267426   C1040.581421,412.155334 1040.107544,410.872681 1039.227417,410.048157   C1032.073364,403.346100 1024.681641,396.891846 1017.658325,390.057800   C1007.201233,379.882507 996.986267,369.458435 986.668274,359.140137   C981.536987,354.008667 976.305237,348.972260 971.318542,343.703827   C968.956970,341.208771 967.617859,337.268219 964.846191,335.736542   C958.716309,332.348999 954.873596,326.745483 949.934570,322.249847   C947.049744,319.623962 945.181763,315.898407 942.363281,313.178558   C935.433960,306.491669 928.061279,300.263123 921.156616,293.552155   C910.803223,283.489044 900.697571,273.171143 890.487061,262.961029   C883.237244,255.711441 875.861328,248.582428 868.776855,241.174667   C862.425110,234.533051 856.400452,227.578888 850.215027,220.777664   C849.432434,219.917130 848.647217,218.594986 847.697754,218.428131   C842.775940,217.563202 840.779602,213.266159 837.841492,210.209427   C828.702942,200.702011 819.813660,190.955292 810.791504,181.335327   C809.315002,179.760986 807.880310,177.944016 806.042480,176.945984   C796.147522,171.572418 790.308228,161.964539 782.408936,154.524963   C777.190796,149.610489 772.771484,143.849274 767.969482,138.489563   C767.420044,137.876312 766.711914,137.404480 766.072998,136.872284   C762.784607,134.133286 759.421204,131.478973 756.220825,128.640747   C749.679565,122.839607 744.931152,115.101791 736.867981,110.897484   C735.770264,110.325104 735.222839,108.584465 734.568115,107.309052   C733.991455,106.185814 733.896179,104.721329 733.117065,103.810883   C725.941345,95.425995 716.238892,89.756042 709.310120,80.939690   C703.477905,73.518387 696.328430,67.122375 689.661865,60.371483   C687.036865,57.713249 684.266602,55.160362 681.319275,52.872768   C679.538025,51.490215 676.772949,51.175030 675.336670,49.581161   C666.972961,40.299549 658.947327,30.714132 650.636169,21.383936   C648.161560,18.605888 645.263123,16.153795 642.311523,13.872339   C640.656189,12.592827 637.943054,12.435480 636.682007,10.946431   C634.439453,8.298394 632.938110,5.022603 631.082764,1.758580   C631.025818,1.338519 631.012878,1.169259 631.000000,1.000000  z"/>
<path fill="#000000" opacity="1.000000" stroke="none" d=" M1.000002,621.000000   C1.000000,414.403259 1.000000,207.806534 1.000000,1.000000   C207.360138,1.000000 413.720367,1.000000 620.594482,1.349381   C620.060486,2.975287 619.112793,4.351881 617.950684,5.514148   C413.768890,209.725388 209.573151,413.922668 5.344607,618.087097   C4.134790,619.296509 2.458483,620.039307 1.000002,621.000000  z"/>
<path fill="#000000" opacity="1.000000" stroke="none" d=" M1252.000000,632.000000   C1252.000000,838.596741 1252.000000,1045.193481 1252.000000,1252.000000   C1045.639893,1252.000000 839.279663,1252.000000 632.405518,1251.650635   C632.939941,1250.024170 633.888245,1248.647095 635.050903,1247.484253   C839.232178,1043.273438 1043.427490,839.076843 1247.655518,634.912903   C1248.865234,633.703491 1250.541504,632.960632 1252.000000,632.000000  z"/>
<path fill="#000000" opacity="1.000000" stroke="none" d=" M621.000000,1252.000000   C414.403259,1252.000000 207.806534,1252.000000 1.000000,1252.000000   C1.000000,1045.639893 1.000000,839.279663 1.349379,632.405518   C2.972323,632.936523 4.346006,633.881287 5.505317,635.040466   C209.719482,839.225220 413.919647,1043.423828 618.087036,1247.655396   C619.296509,1248.865234 620.039307,1250.541504 621.000000,1252.000000  z"/>
<path fill="#264162" opacity="1.000000" stroke="none" d=" M621.458069,1252.000000   C620.039307,1250.541504 619.296509,1248.865234 618.087036,1247.655396   C413.919647,1043.423828 209.719482,839.225220 5.505317,635.040466   C4.346006,633.881287 2.972323,632.936523 1.349379,631.945801   C1.000000,628.638733 1.000000,625.277405 1.000002,621.458069   C2.458483,620.039307 4.134790,619.296509 5.344607,618.087097   C209.573151,413.922668 413.768890,209.725388 617.950684,5.514148   C619.112793,4.351881 620.060486,2.975287 621.054199,1.349381   C623.370544,1.000000 625.741150,1.000000 628.775024,1.206071   C630.001160,1.611222 630.563965,1.810302 631.126770,2.009383   C632.938110,5.022603 634.439453,8.298394 636.682007,10.946431   C637.943054,12.435480 640.656189,12.592827 642.311523,13.872339   C645.263123,16.153795 648.161560,18.605888 650.636169,21.383936   C658.947327,30.714132 666.972961,40.299549 675.336670,49.581161   C676.772949,51.175030 679.538025,51.490215 681.319275,52.872768   C684.266602,55.160362 687.036865,57.713249 689.661865,60.371483   C696.328430,67.122375 703.477905,73.518387 709.310120,80.939690   C716.238892,89.756042 725.941345,95.425995 733.117065,103.810883   C733.896179,104.721329 733.991455,106.185814 734.568115,107.309052   C735.222839,108.584465 735.770264,110.325104 736.867981,110.897484   C744.931152,115.101791 749.679565,122.839607 756.220825,128.640747   C759.421204,131.478973 762.784607,134.133286 766.072998,136.872284   C766.711914,137.404480 767.420044,137.876312 767.969482,138.489563   C772.771484,143.849274 777.190796,149.610489 782.408936,154.524963   C790.308228,161.964539 796.147522,171.572418 806.042480,176.945984   C807.880310,177.944016 809.315002,179.760986 810.791504,181.335327   C819.813660,190.955292 828.702942,200.702011 837.841492,210.209427   C840.779602,213.266159 842.775940,217.563202 847.697754,218.428131   C848.647217,218.594986 849.432434,219.917130 850.215027,220.777664   C856.400452,227.578888 862.425110,234.533051 868.776855,241.174667   C875.861328,248.582428 883.237244,255.711441 890.487061,262.961029   C900.697571,273.171143 910.803223,283.489044 921.156616,293.552155   C928.061279,300.263123 935.433960,306.491669 942.363281,313.178558   C945.181763,315.898407 947.049744,319.623962 949.934570,322.249847   C954.873596,326.745483 958.716309,332.348999 964.846191,335.736542   C967.617859,337.268219 968.956970,341.208771 971.318542,343.703827   C976.305237,348.972260 981.536987,354.008667 986.668274,359.140137   C996.986267,369.458435 1007.201233,379.882507 1017.658325,390.057800   C1024.681641,396.891846 1032.073364,403.346100 1039.227417,410.048157   C1040.107544,410.872681 1040.581421,412.155334 1041.163940,413.267426   C1041.958984,414.785614 1042.294067,416.800812 1043.493774,417.807678   C1049.355591,422.727142 1055.450317,427.368378 1061.434204,432.143799   C1062.470459,432.970856 1063.460693,433.892639 1064.316772,434.902405   C1069.479126,440.991211 1074.399292,447.300232 1079.809204,453.158234   C1082.647095,456.231232 1086.506592,458.335876 1089.564819,461.236359   C1093.870972,465.320679 1097.772949,469.828064 1102.008911,473.990448   C1107.667725,479.550995 1113.470337,484.965759 1119.239014,490.413574   C1120.197021,491.318176 1121.425903,491.953522 1122.311035,492.914551   C1128.877441,500.044250 1135.226196,507.381622 1141.957031,514.350769   C1150.935181,523.646729 1160.082153,532.787354 1169.375854,541.767822   C1175.741577,547.919128 1182.762939,553.405579 1188.970825,559.702271   C1194.758423,565.572632 1199.805176,572.167786 1205.282471,578.351501   C1208.225342,581.673767 1210.165161,586.247620 1215.578613,586.684387   C1216.532349,586.761353 1217.520752,587.944885 1218.266602,588.812134   C1223.708984,595.140015 1228.855713,601.742920 1234.589355,607.791016   C1237.780518,611.157288 1241.966309,613.566833 1245.609741,616.523621   C1247.411621,617.985840 1249.000122,619.710938 1250.901123,621.897217   C1251.411255,622.984985 1251.705566,623.492493 1252.000000,624.000000   C1252.000000,626.370544 1252.000000,628.741150 1252.000000,631.555786   C1250.541504,632.960632 1248.865234,633.703491 1247.655518,634.912903   C1043.427490,839.076843 839.232178,1043.273438 635.050903,1247.484253   C633.888245,1248.647095 632.939941,1250.024170 631.945801,1251.650635   C628.638733,1252.000000 625.277405,1252.000000 621.458069,1252.000000  M167.147491,509.647461   C128.176605,548.618164 89.205719,587.588867 50.696087,626.098328   C243.103134,818.505371 435.132660,1010.534973 626.611145,1202.013428   C818.283936,1010.340698 1010.330566,818.294067 1201.614990,627.009705   C1009.972534,435.366852 817.937012,243.330887 625.700317,51.093777   C473.330719,203.463684 320.489166,356.305603 167.147491,509.647461  z"/>
<path fill="#264263" opacity="1.000000" stroke="none" d=" M1252.000000,623.666687   C1251.705566,623.492493 1251.411255,622.984985 1251.078369,622.179932   C1251.039673,621.882385 1251.516846,621.965149 1251.758423,621.982544   C1252.000000,622.444458 1252.000000,622.888916 1252.000000,623.666687  z"/>
<path fill="#264263" opacity="1.000000" stroke="none" d=" M631.082764,1.758580   C630.563965,1.810302 630.001160,1.611222 629.219177,1.206071   C629.444458,1.000000 629.888916,1.000000 630.666687,1.000000   C631.012878,1.169259 631.025818,1.338519 631.082764,1.758580  z"/>
<path fill="#E9E9E9" opacity="1.000000" stroke="none" d=" M167.397537,509.397461   C320.489166,356.305603 473.330719,203.463684 625.700317,51.093777   C817.937012,243.330887 1009.972534,435.366852 1201.614990,627.009705   C1010.330566,818.294067 818.283936,1010.340698 626.611145,1202.013428   C435.132660,1010.534973 243.103134,818.505371 50.696087,626.098328   C89.205719,587.588867 128.176605,548.618164 167.397537,509.397461  M491.295654,416.794922   C510.702301,397.111542 530.108948,377.428131 549.612122,357.646820   C547.030273,352.324097 544.590393,347.294006 541.923340,341.795654   C533.123657,350.315887 524.745728,358.379242 516.420654,366.496857   C483.139832,398.948547 449.881348,431.423187 416.576599,463.850342   C415.566132,464.834198 414.157104,465.995056 412.898071,466.038696   C406.496887,466.260590 400.083862,466.141022 392.777832,466.141022   C393.804352,464.881287 394.152374,464.382080 394.570801,463.951294   C406.294769,451.881104 418.031769,439.823608 429.753998,427.751801   C439.734650,417.473480 449.745087,407.223022 459.600189,396.825500   C460.569977,395.802277 461.332642,393.499542 460.848206,392.363342   C458.379791,386.574127 455.469421,380.973328 452.581482,375.034637   C451.460297,375.992096 450.522858,376.663910 449.737549,377.481781   C423.319000,404.997864 396.641144,432.273987 370.707886,460.240448   C364.493774,466.941803 358.186005,466.414673 350.045288,465.759918   C367.021240,448.341034 383.381714,431.530609 399.768707,414.746063   C414.782013,399.368530 429.852753,384.046753 444.788605,368.594513   C445.790131,367.558411 446.678711,365.309448 446.231232,364.169952   C444.416901,359.550079 442.059753,355.143402 439.769470,350.380859   C438.601990,351.371094 437.686523,352.053314 436.879242,352.845764   C399.662903,389.379120 362.425323,425.891022 325.310974,462.527771   C322.583099,465.220551 319.902283,466.272736 316.133026,466.245819   C294.634644,466.092285 273.132416,466.334686 251.636703,466.049255   C246.663849,465.983215 243.355881,467.620270 239.981003,471.091858   C198.173187,514.097351 156.225983,556.967346 114.323486,599.880859   C105.723701,608.688171 97.160110,617.530762 87.592178,627.373047   C89.331917,628.569397 91.057884,629.407776 92.341461,630.689270   C137.277557,675.553528 182.193451,720.438110 227.018600,765.413147   C229.682465,768.085999 232.289108,769.253235 236.114914,769.248962   C331.612518,769.142700 427.110260,769.165466 522.607971,769.165405   C686.437378,769.165405 850.266846,769.178345 1014.096191,769.051575   C1016.761292,769.049500 1020.180176,768.101990 1021.979309,766.317383   C1068.243164,720.428467 1114.338623,674.369934 1160.456543,628.333862   C1161.579224,627.213196 1162.622681,626.013306 1163.719604,624.832703   C1162.883911,623.899658 1162.465088,623.384338 1161.998047,622.917175   C1110.619141,571.532532 1059.253540,520.134521 1007.770996,468.853851   C1006.239075,467.327972 1003.482422,466.300751 1001.287292,466.284088   C977.455872,466.103119 953.621765,466.260315 929.791077,466.037323   C927.320251,466.014252 924.242554,464.759949 922.500671,463.020966   C902.572754,443.126007 882.836304,423.039001 863.075134,402.977325   C843.549133,383.154327 824.101196,363.254089 804.525757,343.480042   C792.941040,331.777802 781.175598,320.254578 769.313293,308.473938   C751.057678,325.864410 732.848389,343.198486 714.652710,360.546783   C678.603699,394.916931 642.566650,429.299683 606.495239,463.646301   C605.446655,464.644745 604.088135,465.954987 602.836426,465.996979   C595.972229,466.227234 589.096313,466.106781 580.869751,466.106781   C614.415405,433.635712 646.897644,402.193970 679.280029,370.848907   C675.784363,363.922150 672.582520,357.577698 669.107666,350.692383   C666.972046,352.706573 665.276123,354.230682 663.663269,355.838257   C628.961060,390.427582 594.009766,424.774078 559.797668,459.841705   C553.178467,466.626434 546.629272,466.394104 537.859619,465.889160   C580.424622,424.042816 622.270386,382.903595 664.007324,341.871307   C661.302429,336.380219 658.903564,331.510498 656.216064,326.054840   C646.861633,334.939911 637.939819,343.372742 629.063049,351.852570   C589.916687,389.248352 550.785400,426.659821 511.631378,464.047485   C510.814362,464.827606 509.799805,465.944214 508.857697,465.963989   C501.348206,466.121582 493.833923,466.051941 485.270325,466.051941   C512.594727,439.324677 538.978516,413.517487 565.288635,387.782349   C561.631836,380.396027 558.252747,373.570679 555.163269,367.330383   C549.002930,373.151978 542.779968,378.675293 536.960205,384.594971   C512.664856,409.307648 488.118713,433.793243 464.514221,459.153015   C458.011810,466.138916 451.613312,466.786774 443.761932,465.849640   C443.304260,465.287323 442.846558,464.724976 442.388885,464.162628   C458.524414,448.540253 474.659912,432.917847 491.295654,416.794922  M693.500000,792.643860   C547.812866,792.643860 402.125763,792.643860 256.438629,792.643860   C256.362061,793.079468 256.285492,793.515076 256.208923,793.950684   C379.842072,917.176331 503.475220,1040.401978 627.533813,1164.051636   C749.742310,1041.133179 872.670532,917.490662 995.598755,793.848267   C995.450806,793.446472 995.302917,793.044739 995.154968,792.642944   C894.936646,792.642944 794.718323,792.642944 693.500000,792.643860  M695.485840,180.501205   C695.485901,176.335922 695.504639,172.170547 695.481995,168.005386   C695.436890,159.698212 692.625549,156.844131 684.415039,156.841843   C645.928101,156.831146 607.441162,156.833069 568.954224,156.839828   C560.514954,156.841309 557.842102,159.477112 557.840393,167.811050   C557.832397,206.131378 557.834351,244.451706 557.838806,282.772034   C557.839905,292.071533 560.287537,294.480621 569.769104,294.482422   C607.589600,294.489655 645.410095,294.488586 683.230591,294.483398   C693.089050,294.482056 695.481262,292.039001 695.483154,281.966766   C695.489380,248.478134 695.485840,214.989487 695.485840,180.501205  z"/>
<path fill="#264363" opacity="1.000000" stroke="none" d=" M491.045532,417.045197   C474.659912,432.917847 458.524414,448.540253 442.388885,464.162628   C442.846558,464.724976 443.304260,465.287323 443.761932,465.849640   C451.613312,466.786774 458.011810,466.138916 464.514221,459.153015   C488.118713,433.793243 512.664856,409.307648 536.960205,384.594971   C542.779968,378.675293 549.002930,373.151978 555.163269,367.330383   C558.252747,373.570679 561.631836,380.396027 565.288635,387.782349   C538.978516,413.517487 512.594727,439.324677 485.270325,466.051941   C493.833923,466.051941 501.348206,466.121582 508.857697,465.963989   C509.799805,465.944214 510.814362,464.827606 511.631378,464.047485   C550.785400,426.659821 589.916687,389.248352 629.063049,351.852570   C637.939819,343.372742 646.861633,334.939911 656.216064,326.054840   C658.903564,331.510498 661.302429,336.380219 664.007324,341.871307   C622.270386,382.903595 580.424622,424.042816 537.859619,465.889160   C546.629272,466.394104 553.178467,466.626434 559.797668,459.841705   C594.009766,424.774078 628.961060,390.427582 663.663269,355.838257   C665.276123,354.230682 666.972046,352.706573 669.107666,350.692383   C672.582520,357.577698 675.784363,363.922150 679.280029,370.848907   C646.897644,402.193970 614.415405,433.635712 580.869751,466.106781   C589.096313,466.106781 595.972229,466.227234 602.836426,465.996979   C604.088135,465.954987 605.446655,464.644745 606.495239,463.646301   C642.566650,429.299683 678.603699,394.916931 714.652710,360.546783   C732.848389,343.198486 751.057678,325.864410 769.313293,308.473938   C781.175598,320.254578 792.941040,331.777802 804.525757,343.480042   C824.101196,363.254089 843.549133,383.154327 863.075134,402.977325   C882.836304,423.039001 902.572754,443.126007 922.500671,463.020966   C924.242554,464.759949 927.320251,466.014252 929.791077,466.037323   C953.621765,466.260315 977.455872,466.103119 1001.287292,466.284088   C1003.482422,466.300751 1006.239075,467.327972 1007.770996,468.853851   C1059.253540,520.134521 1110.619141,571.532532 1161.998047,622.917175   C1162.465088,623.384338 1162.883911,623.899658 1163.719604,624.832703   C1162.622681,626.013306 1161.579224,627.213196 1160.456543,628.333862   C1114.338623,674.369934 1068.243164,720.428467 1021.979309,766.317383   C1020.180176,768.101990 1016.761292,769.049500 1014.096191,769.051575   C850.266846,769.178345 686.437378,769.165405 522.607971,769.165405   C427.110260,769.165466 331.612518,769.142700 236.114914,769.248962   C232.289108,769.253235 229.682465,768.085999 227.018600,765.413147   C182.193451,720.438110 137.277557,675.553528 92.341461,630.689270   C91.057884,629.407776 89.331917,628.569397 87.592178,627.373047   C97.160110,617.530762 105.723701,608.688171 114.323486,599.880859   C156.225983,556.967346 198.173187,514.097351 239.981003,471.091858   C243.355881,467.620270 246.663849,465.983215 251.636703,466.049255   C273.132416,466.334686 294.634644,466.092285 316.133026,466.245819   C319.902283,466.272736 322.583099,465.220551 325.310974,462.527771   C362.425323,425.891022 399.662903,389.379120 436.879242,352.845764   C437.686523,352.053314 438.601990,351.371094 439.769470,350.380859   C442.059753,355.143402 444.416901,359.550079 446.231232,364.169952   C446.678711,365.309448 445.790131,367.558411 444.788605,368.594513   C429.852753,384.046753 414.782013,399.368530 399.768707,414.746063   C383.381714,431.530609 367.021240,448.341034 350.045288,465.759918   C358.186005,466.414673 364.493774,466.941803 370.707886,460.240448   C396.641144,432.273987 423.319000,404.997864 449.737549,377.481781   C450.522858,376.663910 451.460297,375.992096 452.581482,375.034637   C455.469421,380.973328 458.379791,386.574127 460.848206,392.363342   C461.332642,393.499542 460.569977,395.802277 459.600189,396.825500   C449.745087,407.223022 439.734650,417.473480 429.753998,427.751801   C418.031769,439.823608 406.294769,451.881104 394.570801,463.951294   C394.152374,464.382080 393.804352,464.881287 392.777832,466.141022   C400.083862,466.141022 406.496887,466.260590 412.898071,466.038696   C414.157104,465.995056 415.566132,464.834198 416.576599,463.850342   C449.881348,431.423187 483.139832,398.948547 516.420654,366.496857   C524.745728,358.379242 533.123657,350.315887 541.923340,341.795654   C544.590393,347.294006 547.030273,352.324097 549.612122,357.646820   C530.108948,377.428131 510.702301,397.111542 491.045532,417.045197  M830.512268,589.840210   C830.512268,585.594543 830.512268,581.348877 830.512268,577.103210   C830.777954,577.076294 831.043579,577.049438 831.309265,577.022522   C847.310181,621.786560 863.311035,666.550659 879.383179,711.513977   C888.750366,711.513977 897.915100,711.255310 907.053772,711.631042   C911.168213,711.800293 912.747864,710.333557 914.093323,706.627258   C929.024231,665.497437 944.144165,624.436218 959.228821,583.362244   C959.880005,581.589294 960.684631,579.872742 961.985840,576.779480   C961.985840,622.628723 961.985840,666.912781 961.985840,711.113281   C977.150879,711.113281 992.030518,711.113281 1006.836914,711.113281   C1006.836914,646.981873 1006.836914,583.252625 1006.836914,519.162537   C1004.866333,519.162537 1003.230286,519.162537 1001.594299,519.162537   C983.098633,519.162476 964.598511,519.382996 946.110168,519.015564   C941.152466,518.917114 939.346863,520.705872 937.887695,525.074829   C926.400757,559.468811 914.684326,593.786194 903.028259,628.123596   C901.459534,632.744934 899.833313,637.346741 897.774109,643.282166   C882.750122,600.996155 868.234680,560.141418 853.761475,519.405640   C831.583374,519.405640 809.814331,519.405640 787.887817,519.405640   C787.887817,583.506470 787.887817,647.363342 787.887817,711.096680   C802.504150,711.096680 816.714233,711.096680 830.513367,711.096680   C830.513367,670.712769 830.513367,630.747620 830.512268,589.840210  M504.472076,513.991089   C498.827026,514.316833 493.138672,514.305481 487.544098,515.024048   C455.865509,519.092834 429.813873,532.634705 412.683014,560.570801   C399.756195,581.651306 396.970184,604.871521 399.493713,628.916382   C401.559784,648.602234 408.877686,666.308350 421.723511,681.474487   C438.682800,701.497192 460.745819,712.265930 486.458435,715.483276   C514.923279,719.044983 542.168396,714.978088 566.139587,698.300659   C596.997070,676.832153 609.230347,645.970154 607.763367,609.304199   C606.328369,573.441467 590.994019,545.354797 559.127686,527.470520   C542.522583,518.151306 524.336548,514.533020 504.472076,513.991089  M355.807281,632.387024   C372.407867,625.929688 384.459717,614.974915 389.678894,597.536011   C392.587677,587.817017 392.702484,577.817871 391.405243,567.826721   C388.668091,546.745483 376.766571,532.766541 357.094696,525.737000   C349.035706,522.857178 340.353577,520.488647 331.881622,520.222717   C303.755249,519.339783 275.595551,519.516785 247.448486,519.309265   C247.171570,519.307251 246.892456,519.603027 246.420547,519.869019   C246.420547,583.505554 246.420547,647.237793 246.420547,711.135986   C262.049713,711.135986 277.419861,711.135986 293.149078,711.135986   C293.149078,686.991882 293.149078,663.221375 293.149078,639.005981   C314.237640,638.997925 335.155518,640.284424 355.807281,632.387024  M752.474548,622.991455   C763.802368,613.816589 770.113159,601.891602 771.508850,587.458862   C773.360718,568.309570 770.677673,550.437073 755.523193,536.658813   C743.084900,525.350098 727.668701,520.767029 711.500977,520.177795   C683.724426,519.165283 655.900757,519.443176 628.096558,519.212952   C627.503906,519.208008 626.907898,519.607788 626.523560,519.744141   C626.523560,583.712402 626.523560,647.411377 626.523560,711.140259   C642.119873,711.140259 657.352539,711.140259 672.944946,711.140259   C672.944946,687.008423 672.944946,663.247070 672.944946,639.010071   C681.920105,639.010071 690.544739,639.220215 699.155701,638.967102   C718.074951,638.411133 736.220276,635.021851 752.474548,622.991455  z"/>
<path fill="#F6BA4E" opacity="1.000000" stroke="none" d=" M694.000000,792.643433   C794.718323,792.642944 894.936646,792.642944 995.154968,792.642944   C995.302917,793.044739 995.450806,793.446472 995.598755,793.848267   C872.670532,917.490662 749.742310,1041.133179 627.533813,1164.051636   C503.475220,1040.401978 379.842072,917.176331 256.208923,793.950684   C256.285492,793.515076 256.362061,793.079468 256.438629,792.643860   C402.125763,792.643860 547.812866,792.643860 694.000000,792.643433  M539.264709,909.735413   C534.700378,920.675537 530.136108,931.615601 525.319885,943.159607   C535.182739,943.159607 543.996094,943.284424 552.797913,943.021362   C554.076660,942.983154 555.875000,941.336670 556.447144,940.009460   C558.683167,934.822388 560.308899,929.367004 562.646484,924.232178   C563.312195,922.770020 565.601074,921.170166 567.176514,921.137817   C579.490417,920.884216 591.814392,920.880920 604.127869,921.143799   C605.680542,921.176880 607.887329,922.874390 608.593689,924.367249   C611.008240,929.469788 612.775818,934.874695 615.053284,940.048462   C615.610413,941.314209 617.147461,943.000793 618.272156,943.030090   C627.514771,943.270935 636.766418,943.166138 646.443726,943.166138   C646.011108,941.578735 645.855896,940.605835 645.488831,939.720764   C630.703857,904.069458 615.869873,868.438293 601.158508,832.756653   C600.066284,830.107300 598.554626,829.354797 595.891479,829.420654   C589.902039,829.568787 583.893127,829.708008 577.918274,829.377625   C574.146545,829.169006 572.387207,830.514587 570.957642,833.982849   C560.623901,859.053406 550.067566,884.032227 539.264709,909.735413  M660.536926,972.851685   C661.137634,969.165100 658.948120,968.946594 656.092407,968.959961   C638.770508,969.041016 621.447998,969.000244 604.125732,969.000183   C599.822083,969.000183 595.518372,969.000244 590.735535,969.000244   C589.810059,990.850037 588.903625,1012.248535 587.979492,1034.067749   C590.197937,1033.498657 591.931824,1033.029663 593.677551,1032.609863   C604.400635,1030.031128 615.184937,1027.780762 626.179321,1030.758667   C636.378967,1033.521240 641.107422,1041.979858 638.286072,1051.865967   C635.937012,1060.097290 626.609192,1064.687256 617.335144,1062.359497   C610.416870,1060.622803 606.470581,1055.750977 603.589355,1049.391113   C595.418884,1051.912964 587.544983,1054.343384 578.931519,1057.002075   C580.465210,1060.337402 581.490601,1063.301025 583.084351,1065.918335   C596.869324,1088.556274 634.096375,1093.171509 654.377014,1074.614136   C665.823853,1064.139771 668.300415,1050.557739 665.259949,1036.105957   C662.333496,1022.196106 652.807068,1013.795654 639.152161,1010.951660   C631.149170,1009.284790 622.785950,1009.347412 613.967651,1008.578308   C614.271606,1004.050842 614.643616,998.510010 615.056946,992.353394   C630.403992,992.353394 645.286194,992.353394 660.539001,992.353394   C660.539001,985.734558 660.539001,979.758362 660.536926,972.851685  M485.370941,923.162659   C474.936279,923.651550 466.859283,918.756287 460.221252,912.273987   C454.068878,918.182800 448.021667,923.990540 441.983459,929.789673   C458.016846,948.806519 497.639801,951.917664 516.063049,935.672913   C531.095154,922.418213 532.180115,898.494385 517.731445,886.223206   C513.042480,882.240967 506.985443,879.696289 501.262543,877.149170   C494.290985,874.046143 486.744843,872.169006 479.940857,868.772705   C473.155731,865.385864 472.955566,856.243103 479.603577,852.571716   C483.290314,850.535706 488.114197,849.838013 492.430237,849.822266   C499.899017,849.795044 505.873535,853.903870 511.228333,859.136841   C517.133728,852.826477 522.767212,846.806702 528.402527,840.784912   C511.392242,825.328613 483.354614,822.078552 464.065063,833.209778   C451.968719,840.190063 446.365662,850.881409 447.182220,864.839111   C447.933807,877.686584 454.944702,886.183655 466.347412,891.170166   C472.426392,893.828491 478.885590,895.603760 485.075745,898.026489   C488.612976,899.410889 492.275787,900.849792 495.319305,903.044556   C502.299866,908.078369 500.972748,918.281616 493.036011,921.663635   C490.947327,922.553589 488.532745,922.678711 485.370941,923.162659  M685.737915,899.169556   C698.473267,899.169556 711.208557,899.169556 723.778076,899.169556   C723.778076,891.044250 723.778076,883.806152 723.778076,876.058899   C709.154602,876.058899 694.914246,876.058899 680.623535,876.058899   C680.623535,868.167786 680.623535,860.810669 680.623535,852.893677   C696.625183,852.893677 712.179382,852.893677 727.750000,852.893677   C727.750000,844.881714 727.750000,837.447449 727.750000,829.804199   C702.776245,829.804199 678.051392,829.804199 653.360901,829.804199   C653.360901,867.704224 653.360901,905.261963 653.360901,942.756348   C662.444763,942.756348 671.163818,942.756348 680.388062,942.756348   C680.388062,928.107666 680.388062,913.866211 680.388062,899.446899   C682.194214,899.333557 683.495728,899.251892 685.737915,899.169556  M734.050049,895.710327   C731.435242,921.521362 742.739563,939.125122 765.498108,944.562012   C774.941162,946.817871 784.379944,946.511108 793.623413,943.613953   C801.909241,941.016846 808.795776,936.362671 813.802246,928.646912   C807.603149,924.739624 801.717834,921.030090 795.704651,917.239929   C788.638794,925.001465 780.215576,927.301880 770.599304,924.053589   C764.624573,922.035461 760.441284,918.005920 758.896545,910.756104   C778.437744,910.756104 797.482971,910.756104 816.830322,910.756104   C816.830322,906.315063 817.094727,902.497498 816.785767,898.726929   C815.223877,879.664673 804.296814,865.705200 787.520813,861.979370   C761.373840,856.172424 738.689148,870.446167 734.050049,895.710327  M828.412598,875.842102   C830.195862,875.480347 832.053101,875.325562 833.749268,874.719788   C839.999146,872.487976 844.368774,866.496521 844.522705,859.921509   C844.685791,852.954773 841.574158,847.770142 835.444458,844.516418   C829.614685,841.421997 822.162598,842.248779 817.234070,846.553223   C812.038818,851.090637 809.845703,856.815125 811.821777,863.554016   C814.090149,871.289856 819.643066,875.187073 828.412598,875.842102  z"/>
<path fill="#264263" opacity="1.000000" stroke="none" d=" M695.485962,181.001038   C695.485840,214.989487 695.489380,248.478134 695.483154,281.966766   C695.481262,292.039001 693.089050,294.482056 683.230591,294.483398   C645.410095,294.488586 607.589600,294.489655 569.769104,294.482422   C560.287537,294.480621 557.839905,292.071533 557.838806,282.772034   C557.834351,244.451706 557.832397,206.131378 557.840393,167.811050   C557.842102,159.477112 560.514954,156.841309 568.954224,156.839828   C607.441162,156.833069 645.928101,156.831146 684.415039,156.841843   C692.625549,156.844131 695.436890,159.698212 695.481995,168.005386   C695.504639,172.170547 695.485901,176.335922 695.485962,181.001038  M583.581909,174.140503   C580.841675,174.140503 578.101501,174.140503 575.479858,174.140503   C575.479858,208.928543 575.479858,242.828629 575.479858,276.640015   C609.853027,276.640015 643.885498,276.640015 677.713257,276.640015   C677.713257,242.343750 677.713257,208.435303 677.713257,174.140503   C646.454895,174.140503 615.508850,174.140503 583.581909,174.140503  z"/>
<path fill="#FDFDFD" opacity="1.000000" stroke="none" d=" M830.512817,590.311401   C830.513367,630.747620 830.513367,670.712769 830.513367,711.096680   C816.714233,711.096680 802.504150,711.096680 787.887817,711.096680   C787.887817,647.363342 787.887817,583.506470 787.887817,519.405640   C809.814331,519.405640 831.583374,519.405640 853.761475,519.405640   C868.234680,560.141418 882.750122,600.996155 897.774109,643.282166   C899.833313,637.346741 901.459534,632.744934 903.028259,628.123596   C914.684326,593.786194 926.400757,559.468811 937.887695,525.074829   C939.346863,520.705872 941.152466,518.917114 946.110168,519.015564   C964.598511,519.382996 983.098633,519.162476 1001.594299,519.162537   C1003.230286,519.162537 1004.866333,519.162537 1006.836914,519.162537   C1006.836914,583.252625 1006.836914,646.981873 1006.836914,711.113281   C992.030518,711.113281 977.150879,711.113281 961.985840,711.113281   C961.985840,666.912781 961.985840,622.628723 961.985840,576.779480   C960.684631,579.872742 959.880005,581.589294 959.228821,583.362244   C944.144165,624.436218 929.024231,665.497437 914.093323,706.627258   C912.747864,710.333557 911.168213,711.800293 907.053772,711.631042   C897.915100,711.255310 888.750366,711.513977 879.383179,711.513977   C863.311035,666.550659 847.310181,621.786560 831.309265,577.022522   C831.043579,577.049438 830.777954,577.076294 830.512268,577.103210   C830.512268,581.348877 830.512268,585.594543 830.512817,590.311401  z"/>
<path fill="#FEFEFE" opacity="1.000000" stroke="none" d=" M504.961792,513.989990   C524.336548,514.533020 542.522583,518.151306 559.127686,527.470520   C590.994019,545.354797 606.328369,573.441467 607.763367,609.304199   C609.230347,645.970154 596.997070,676.832153 566.139587,698.300659   C542.168396,714.978088 514.923279,719.044983 486.458435,715.483276   C460.745819,712.265930 438.682800,701.497192 421.723511,681.474487   C408.877686,666.308350 401.559784,648.602234 399.493713,628.916382   C396.970184,604.871521 399.756195,581.651306 412.683014,560.570801   C429.813873,532.634705 455.865509,519.092834 487.544098,515.024048   C493.138672,514.305481 498.827026,514.316833 504.961792,513.989990  M550.605469,645.995911   C557.849976,632.006104 559.554688,617.205933 556.916687,601.822693   C550.752625,565.877625 513.383911,545.745667 480.463928,560.977539   C458.585846,571.100342 449.225922,589.624023 448.619080,612.843811   C448.092560,632.991943 454.356934,650.681519 470.803436,663.451111   C493.705658,681.233154 532.784607,677.697021 550.605469,645.995911  z"/>
<path fill="#FDFEFE" opacity="1.000000" stroke="none" d=" M355.455231,632.549072   C335.155518,640.284424 314.237640,638.997925 293.149078,639.005981   C293.149078,663.221375 293.149078,686.991882 293.149078,711.135986   C277.419861,711.135986 262.049713,711.135986 246.420547,711.135986   C246.420547,647.237793 246.420547,583.505554 246.420547,519.869019   C246.892456,519.603027 247.171570,519.307251 247.448486,519.309265   C275.595551,519.516785 303.755249,519.339783 331.881622,520.222717   C340.353577,520.488647 349.035706,522.857178 357.094696,525.737000   C376.766571,532.766541 388.668091,546.745483 391.405243,567.826721   C392.702484,577.817871 392.587677,587.817017 389.678894,597.536011   C384.459717,614.974915 372.407867,625.929688 355.455231,632.549072  M293.008942,587.494507   C293.008942,592.249573 293.008942,597.004639 293.008942,601.955200   C300.684540,601.955200 307.686127,602.312988 314.631165,601.840332   C320.054993,601.471313 325.617432,600.700134 330.749634,598.996948   C341.133789,595.550903 346.139252,587.627197 345.459900,577.273560   C344.815125,567.446838 339.149994,560.124939 328.488281,558.592163   C316.928589,556.930298 305.107880,557.083984 293.008942,556.424561   C293.008942,567.237183 293.008942,576.866577 293.008942,587.494507  z"/>
<path fill="#FDFDFE" opacity="1.000000" stroke="none" d=" M752.197876,623.214111   C736.220276,635.021851 718.074951,638.411133 699.155701,638.967102   C690.544739,639.220215 681.920105,639.010071 672.944946,639.010071   C672.944946,663.247070 672.944946,687.008423 672.944946,711.140259   C657.352539,711.140259 642.119873,711.140259 626.523560,711.140259   C626.523560,647.411377 626.523560,583.712402 626.523560,519.744141   C626.907898,519.607788 627.503906,519.208008 628.096558,519.212952   C655.900757,519.443176 683.724426,519.165283 711.500977,520.177795   C727.668701,520.767029 743.084900,525.350098 755.523193,536.658813   C770.677673,550.437073 773.360718,568.309570 771.508850,587.458862   C770.113159,601.891602 763.802368,613.816589 752.197876,623.214111  M721.474365,566.158447   C716.970215,563.516541 712.696167,559.229919 707.915955,558.560974   C696.503540,556.963989 684.852478,557.072937 673.137207,556.484863   C673.137207,572.229248 673.137207,586.924500 673.137207,602.493530   C683.884338,601.930969 694.409424,602.158569 704.686157,600.670715   C722.903381,598.033325 730.806824,581.819641 721.474365,566.158447  z"/>
<path fill="#274363" opacity="1.000000" stroke="none" d=" M539.423218,909.387756   C550.067566,884.032227 560.623901,859.053406 570.957642,833.982849   C572.387207,830.514587 574.146545,829.169006 577.918274,829.377625   C583.893127,829.708008 589.902039,829.568787 595.891479,829.420654   C598.554626,829.354797 600.066284,830.107300 601.158508,832.756653   C615.869873,868.438293 630.703857,904.069458 645.488831,939.720764   C645.855896,940.605835 646.011108,941.578735 646.443726,943.166138   C636.766418,943.166138 627.514771,943.270935 618.272156,943.030090   C617.147461,943.000793 615.610413,941.314209 615.053284,940.048462   C612.775818,934.874695 611.008240,929.469788 608.593689,924.367249   C607.887329,922.874390 605.680542,921.176880 604.127869,921.143799   C591.814392,920.880920 579.490417,920.884216 567.176514,921.137817   C565.601074,921.170166 563.312195,922.770020 562.646484,924.232178   C560.308899,929.367004 558.683167,934.822388 556.447144,940.009460   C555.875000,941.336670 554.076660,942.983154 552.797913,943.021362   C543.996094,943.284424 535.182739,943.159607 525.319885,943.159607   C530.136108,931.615601 534.700378,920.675537 539.423218,909.387756  M591.228638,875.238831   C589.620850,870.786926 588.013062,866.335022 586.405273,861.883118   C586.027405,861.917542 585.649536,861.951904 585.271667,861.986328   C580.804321,874.041138 576.336914,886.095886 571.754028,898.462585   C581.237671,898.462585 590.073486,898.462585 598.859619,898.462585   C598.962158,897.755737 599.132019,897.392578 599.036987,897.122742   C596.550354,890.063782 594.036377,883.014465 591.228638,875.238831  z"/>
<path fill="#284463" opacity="1.000000" stroke="none" d=" M660.537964,973.316956   C660.539001,979.758362 660.539001,985.734558 660.539001,992.353394   C645.286194,992.353394 630.403992,992.353394 615.056946,992.353394   C614.643616,998.510010 614.271606,1004.050842 613.967651,1008.578308   C622.785950,1009.347412 631.149170,1009.284790 639.152161,1010.951660   C652.807068,1013.795654 662.333496,1022.196106 665.259949,1036.105957   C668.300415,1050.557739 665.823853,1064.139771 654.377014,1074.614136   C634.096375,1093.171509 596.869324,1088.556274 583.084351,1065.918335   C581.490601,1063.301025 580.465210,1060.337402 578.931519,1057.002075   C587.544983,1054.343384 595.418884,1051.912964 603.589355,1049.391113   C606.470581,1055.750977 610.416870,1060.622803 617.335144,1062.359497   C626.609192,1064.687256 635.937012,1060.097290 638.286072,1051.865967   C641.107422,1041.979858 636.378967,1033.521240 626.179321,1030.758667   C615.184937,1027.780762 604.400635,1030.031128 593.677551,1032.609863   C591.931824,1033.029663 590.197937,1033.498657 587.979492,1034.067749   C588.903625,1012.248535 589.810059,990.850037 590.735535,969.000244   C595.518372,969.000244 599.822083,969.000183 604.125732,969.000183   C621.447998,969.000244 638.770508,969.041016 656.092407,968.959961   C658.948120,968.946594 661.137634,969.165100 660.537964,973.316956  z"/>
<path fill="#274363" opacity="1.000000" stroke="none" d=" M485.819397,923.158813   C488.532745,922.678711 490.947327,922.553589 493.036011,921.663635   C500.972748,918.281616 502.299866,908.078369 495.319305,903.044556   C492.275787,900.849792 488.612976,899.410889 485.075745,898.026489   C478.885590,895.603760 472.426392,893.828491 466.347412,891.170166   C454.944702,886.183655 447.933807,877.686584 447.182220,864.839111   C446.365662,850.881409 451.968719,840.190063 464.065063,833.209778   C483.354614,822.078552 511.392242,825.328613 528.402527,840.784912   C522.767212,846.806702 517.133728,852.826477 511.228333,859.136841   C505.873535,853.903870 499.899017,849.795044 492.430237,849.822266   C488.114197,849.838013 483.290314,850.535706 479.603577,852.571716   C472.955566,856.243103 473.155731,865.385864 479.940857,868.772705   C486.744843,872.169006 494.290985,874.046143 501.262543,877.149170   C506.985443,879.696289 513.042480,882.240967 517.731445,886.223206   C532.180115,898.494385 531.095154,922.418213 516.063049,935.672913   C497.639801,951.917664 458.016846,948.806519 441.983459,929.789673   C448.021667,923.990540 454.068878,918.182800 460.221252,912.273987   C466.859283,918.756287 474.936279,923.651550 485.819397,923.158813  z"/>
<path fill="#284363" opacity="1.000000" stroke="none" d=" M685.267578,899.169861   C683.495728,899.251892 682.194214,899.333557 680.388062,899.446899   C680.388062,913.866211 680.388062,928.107666 680.388062,942.756348   C671.163818,942.756348 662.444763,942.756348 653.360901,942.756348   C653.360901,905.261963 653.360901,867.704224 653.360901,829.804199   C678.051392,829.804199 702.776245,829.804199 727.750000,829.804199   C727.750000,837.447449 727.750000,844.881714 727.750000,852.893677   C712.179382,852.893677 696.625183,852.893677 680.623535,852.893677   C680.623535,860.810669 680.623535,868.167786 680.623535,876.058899   C694.914246,876.058899 709.154602,876.058899 723.778076,876.058899   C723.778076,883.806152 723.778076,891.044250 723.778076,899.169556   C711.208557,899.169556 698.473267,899.169556 685.267578,899.169861  z"/>
<path fill="#284363" opacity="1.000000" stroke="none" d=" M734.093628,895.283325   C738.689148,870.446167 761.373840,856.172424 787.520813,861.979370   C804.296814,865.705200 815.223877,879.664673 816.785767,898.726929   C817.094727,902.497498 816.830322,906.315063 816.830322,910.756104   C797.482971,910.756104 778.437744,910.756104 758.896545,910.756104   C760.441284,918.005920 764.624573,922.035461 770.599304,924.053589   C780.215576,927.301880 788.638794,925.001465 795.704651,917.239929   C801.717834,921.030090 807.603149,924.739624 813.802246,928.646912   C808.795776,936.362671 801.909241,941.016846 793.623413,943.613953   C784.379944,946.511108 774.941162,946.817871 765.498108,944.562012   C742.739563,939.125122 731.435242,921.521362 734.093628,895.283325  M759.376343,891.222900   C758.542480,893.546143 759.618958,894.081116 761.761108,894.033752   C766.234741,893.934814 770.712158,894.008850 775.188049,894.009766   C780.886597,894.010925 786.585144,894.010071 792.318848,894.010071   C791.477417,884.338318 786.685059,879.507874 778.131470,878.989990   C769.790344,878.485046 763.183716,882.593018 759.376343,891.222900  z"/>
<path fill="#2C4962" opacity="1.000000" stroke="none" d=" M827.996216,875.842957   C819.643066,875.187073 814.090149,871.289856 811.821777,863.554016   C809.845703,856.815125 812.038818,851.090637 817.234070,846.553223   C822.162598,842.248779 829.614685,841.421997 835.444458,844.516418   C841.574158,847.770142 844.685791,852.954773 844.522705,859.921509   C844.368774,866.496521 839.999146,872.487976 833.749268,874.719788   C832.053101,875.325562 830.195862,875.480347 827.996216,875.842957  M839.054199,867.402161   C842.794312,860.650635 842.481140,854.785889 838.123413,849.973938   C834.186584,845.626770 827.542419,844.265259 822.150513,846.752502   C816.763611,849.237366 814.192078,853.676453 814.028809,859.414246   C813.872742,864.897461 817.627014,870.203430 822.877563,872.103760   C828.983215,874.313477 834.277283,872.857056 839.054199,867.402161  z"/>
<path fill="#E2E3E4" opacity="1.000000" stroke="none" d=" M584.072388,174.140503   C615.508850,174.140503 646.454895,174.140503 677.713257,174.140503   C677.713257,208.435303 677.713257,242.343750 677.713257,276.640015   C643.885498,276.640015 609.853027,276.640015 575.479858,276.640015   C575.479858,242.828629 575.479858,208.928543 575.479858,174.140503   C578.101501,174.140503 580.841675,174.140503 584.072388,174.140503  M604.500244,268.809967   C626.090210,268.809967 647.680115,268.809967 669.517517,268.809967   C669.517517,239.837357 669.517517,211.462708 669.517517,182.848206   C640.851074,182.848206 612.477600,182.848206 583.844849,182.848206   C583.844849,211.526306 583.844849,239.895844 583.844849,268.809937   C590.591248,268.809937 597.045898,268.809937 604.500244,268.809967  z"/>
<path fill="#264264" opacity="1.000000" stroke="none" d=" M550.422974,646.317383   C532.784607,677.697021 493.705658,681.233154 470.803436,663.451111   C454.356934,650.681519 448.092560,632.991943 448.619080,612.843811   C449.225922,589.624023 458.585846,571.100342 480.463928,560.977539   C513.383911,545.745667 550.752625,565.877625 556.916687,601.822693   C559.554688,617.205933 557.849976,632.006104 550.422974,646.317383  z"/>
<path fill="#264264" opacity="1.000000" stroke="none" d=" M293.008942,586.995239   C293.008942,576.866577 293.008942,567.237183 293.008942,556.424561   C305.107880,557.083984 316.928589,556.930298 328.488281,558.592163   C339.149994,560.124939 344.815125,567.446838 345.459900,577.273560   C346.139252,587.627197 341.133789,595.550903 330.749634,598.996948   C325.617432,600.700134 320.054993,601.471313 314.631165,601.840332   C307.686127,602.312988 300.684540,601.955200 293.008942,601.955200   C293.008942,597.004639 293.008942,592.249573 293.008942,586.995239  z"/>
<path fill="#264364" opacity="1.000000" stroke="none" d=" M721.699646,566.453247   C730.806824,581.819641 722.903381,598.033325 704.686157,600.670715   C694.409424,602.158569 683.884338,601.930969 673.137207,602.493530   C673.137207,586.924500 673.137207,572.229248 673.137207,556.484863   C684.852478,557.072937 696.503540,556.963989 707.915955,558.560974   C712.696167,559.229919 716.970215,563.516541 721.699646,566.453247  z"/>
<path fill="#F0B64F" opacity="1.000000" stroke="none" d=" M591.377869,875.601135   C594.036377,883.014465 596.550354,890.063782 599.036987,897.122742   C599.132019,897.392578 598.962158,897.755737 598.859619,898.462585   C590.073486,898.462585 581.237671,898.462585 571.754028,898.462585   C576.336914,886.095886 580.804321,874.041138 585.271667,861.986328   C585.649536,861.951904 586.027405,861.917542 586.405273,861.883118   C588.013062,866.335022 589.620850,870.786926 591.377869,875.601135  z"/>
<path fill="#F3B84E" opacity="1.000000" stroke="none" d=" M759.517456,890.849487   C763.183716,882.593018 769.790344,878.485046 778.131470,878.989990   C786.685059,879.507874 791.477417,884.338318 792.318848,894.010071   C786.585144,894.010071 780.886597,894.010925 775.188049,894.009766   C770.712158,894.008850 766.234741,893.934814 761.761108,894.033752   C759.618958,894.081116 758.542480,893.546143 759.517456,890.849487  z"/>
<path fill="#ECB44F" opacity="1.000000" stroke="none" d=" M838.838501,867.708984   C834.277283,872.857056 828.983215,874.313477 822.877563,872.103760   C817.627014,870.203430 813.872742,864.897461 814.028809,859.414246   C814.192078,853.676453 816.763611,849.237366 822.150513,846.752502   C827.542419,844.265259 834.186584,845.626770 838.123413,849.973938   C842.481140,854.785889 842.794312,860.650635 838.838501,867.708984  M827.916321,862.354065   C831.503174,868.815857 831.503174,868.815857 835.149902,867.862366   C833.869873,865.536072 832.615906,863.256958 831.361877,860.977844   C831.931702,860.991577 832.501465,861.005310 833.071289,861.019043   C833.446045,858.269348 835.065308,854.776245 833.953247,852.914612   C831.059265,848.069458 825.959351,850.116455 821.173767,850.078918   C821.173767,855.824890 821.072754,860.954041 821.267090,866.072021   C821.301941,866.989197 822.556580,867.860107 823.247986,868.752441   C823.830017,867.775085 824.638428,866.860352 824.931091,865.802979   C825.230957,864.719543 824.796753,863.418640 825.152039,862.371826   C825.299500,861.937683 826.662170,861.915955 827.916321,862.354065  z"/>
<path fill="#284464" opacity="1.000000" stroke="none" d=" M604.000366,268.809937   C597.045898,268.809937 590.591248,268.809937 583.844849,268.809937   C583.844849,239.895844 583.844849,211.526306 583.844849,182.848206   C612.477600,182.848206 640.851074,182.848206 669.517517,182.848206   C669.517517,211.462708 669.517517,239.837357 669.517517,268.809967   C647.680115,268.809967 626.090210,268.809967 604.000366,268.809937  M659.557678,216.500259   C659.557678,211.838730 659.573914,207.177155 659.554626,202.515701   C659.501099,189.542633 660.721619,191.429245 647.983093,191.047348   C643.472107,190.912079 642.324707,192.560425 642.363281,196.823257   C642.542664,216.633102 642.440308,236.445465 642.456787,256.256927   C642.457581,257.164185 642.632202,258.071350 642.798401,259.681244   C645.825256,256.854950 648.311829,254.533142 650.954834,252.065308   C653.713745,254.701599 656.229675,257.105652 659.557495,260.285522   C659.557495,245.082581 659.557495,231.291412 659.557678,216.500259  M593.984009,234.168121   C593.163879,236.797897 592.343750,239.427689 591.390869,242.483093   C605.785950,242.483093 618.799744,242.483093 631.649414,242.483093   C631.649414,239.526611 631.649414,236.960068 631.649414,234.140106   C619.148987,234.140106 607.026245,234.140106 593.984009,234.168121  M604.515259,260.037079   C611.765015,260.037079 619.014709,260.037079 626.644592,260.037079   C626.496216,256.734131 626.381897,254.190033 626.276855,251.851715   C614.539978,251.851715 603.469299,251.851715 592.390747,251.851715   C592.390747,254.710571 592.390747,257.143982 592.390747,260.037079   C596.266724,260.037079 599.895203,260.037079 604.515259,260.037079  M598.646423,217.108826   C596.565125,217.108826 594.483765,217.108826 592.434814,217.108826   C592.434814,220.302277 592.434814,222.705322 592.434814,225.179962   C602.597107,225.179962 612.429993,225.179962 622.247559,225.179962   C622.247559,222.345047 622.247559,219.932770 622.247559,217.108810   C614.473511,217.108810 607.043945,217.108810 598.646423,217.108826  M594.895935,199.878510   C602.489441,199.878510 610.083008,199.878510 617.852905,199.878510   C617.852905,196.861786 617.852905,194.421677 617.852905,191.732269   C609.303040,191.732269 600.916931,191.732269 591.189453,191.732269   C592.271851,194.879715 593.126526,197.365082 594.895935,199.878510  z"/>
<path fill="#314A62" opacity="1.000000" stroke="none" d=" M827.694214,862.030396   C826.662170,861.915955 825.299500,861.937683 825.152039,862.371826   C824.796753,863.418640 825.230957,864.719543 824.931091,865.802979   C824.638428,866.860352 823.830017,867.775085 823.247925,868.752441   C822.556580,867.860107 821.301941,866.989197 821.267090,866.072021   C821.072754,860.954041 821.173767,855.824890 821.173767,850.078918   C825.959351,850.116455 831.059265,848.069458 833.953247,852.914612   C835.065308,854.776245 833.446045,858.269348 833.071289,861.019043   C832.501465,861.005310 831.931702,860.991577 831.361877,860.977844   C832.615906,863.256958 833.869873,865.536072 835.149902,867.862366   C831.503174,868.815857 831.503174,868.815857 827.694214,862.030396  M827.400635,852.900513   C826.397644,854.284668 825.394653,855.668884 824.391724,857.053040   C824.953613,857.559875 825.515442,858.066711 826.077332,858.573547   C827.748047,857.595154 829.418762,856.616760 831.089478,855.638306   C830.145630,854.745239 829.201782,853.852173 827.400635,852.900513  z"/>
<path fill="#DEE0E2" opacity="1.000000" stroke="none" d=" M659.557617,217.000244   C659.557495,231.291412 659.557495,245.082581 659.557495,260.285522   C656.229675,257.105652 653.713745,254.701599 650.954834,252.065308   C648.311829,254.533142 645.825256,256.854950 642.798401,259.681244   C642.632202,258.071350 642.457581,257.164185 642.456787,256.256927   C642.440308,236.445465 642.542664,216.633102 642.363281,196.823257   C642.324707,192.560425 643.472107,190.912079 647.983093,191.047348   C660.721619,191.429245 659.501099,189.542633 659.554626,202.515701   C659.573914,207.177155 659.557678,211.838730 659.557617,217.000244  z"/>
<path fill="#DEE0E2" opacity="1.000000" stroke="none" d=" M594.443726,234.154114   C607.026245,234.140106 619.148987,234.140106 631.649414,234.140106   C631.649414,236.960068 631.649414,239.526611 631.649414,242.483093   C618.799744,242.483093 605.785950,242.483093 591.390869,242.483093   C592.343750,239.427689 593.163879,236.797897 594.443726,234.154114  z"/>
<path fill="#DCDEE0" opacity="1.000000" stroke="none" d=" M604.019531,260.037079   C599.895203,260.037079 596.266724,260.037079 592.390747,260.037079   C592.390747,257.143982 592.390747,254.710571 592.390747,251.851715   C603.469299,251.851715 614.539978,251.851715 626.276855,251.851715   C626.381897,254.190033 626.496216,256.734131 626.644592,260.037079   C619.014709,260.037079 611.765015,260.037079 604.019531,260.037079  z"/>
<path fill="#D7D9DD" opacity="1.000000" stroke="none" d=" M599.130371,217.108826   C607.043945,217.108810 614.473511,217.108810 622.247559,217.108810   C622.247559,219.932770 622.247559,222.345047 622.247559,225.179962   C612.429993,225.179962 602.597107,225.179962 592.434814,225.179962   C592.434814,222.705322 592.434814,220.302277 592.434814,217.108826   C594.483765,217.108826 596.565125,217.108826 599.130371,217.108826  z"/>
<path fill="#D8DBDE" opacity="1.000000" stroke="none" d=" M594.438599,199.864471   C593.126526,197.365082 592.271851,194.879715 591.189453,191.732269   C600.916931,191.732269 609.303040,191.732269 617.852905,191.732269   C617.852905,194.421677 617.852905,196.861786 617.852905,199.878510   C610.083008,199.878510 602.489441,199.878510 594.438599,199.864471  z"/>
<path fill="#EBB34F" opacity="1.000000" stroke="none" d=" M827.829285,852.929810   C829.201782,853.852173 830.145630,854.745239 831.089478,855.638306   C829.418762,856.616760 827.748047,857.595154 826.077332,858.573547   C825.515442,858.066711 824.953613,857.559875 824.391724,857.053040   C825.394653,855.668884 826.397644,854.284668 827.829285,852.929810  z"/>
</svg>